<?xml version="1.0" encoding="UTF-8"?>
<svg id="Layer_1" data-name="Layer 1" xmlns="http://www.w3.org/2000/svg" version="1.1" viewBox="0 0 500 181.7">
  <defs>
    <style>
      .cls-1 {
        fill: #db9c2c;
      }

      .cls-1, .cls-2 {
        stroke-width: 0px;
      }

      .cls-2 {
        fill: #000;
      }
    </style>
  </defs>
  <g>
    <path class="cls-1" d="M30.1,74.5c-1,1.1-2,2.1-3,3.1l-3.1,3.1c-1.1-1.1-2.2-2.2-3.2-3.2s-2.1-2.1-3.2-3.2c1.2-.8,2.3-1.7,3.2-2.8.9-1,1.9-2.1,2.9-3.2,1,1.1,2,2.1,3.1,3.1,1.1,1,2.2,2,3.3,3ZM80.6,92.5c-1.1,4.3-2.5,8.5-4.2,12.8-1.7,4.2-4.2,7.9-7.6,11-1,1-2.2,1.9-3.7,2.6-1.4.7-2.9,1.2-4.3,1.4-2.6.4-5.3.5-8.1.4-2.8-.1-5.6-.2-8.3,0-3.7,0-7.1-.9-10.2-3.1-1.4-1.1-2.7-2.3-3.8-3.7-1.1-1.4-2-2.9-2.6-4.6-1-2.6-1.6-5.3-1.9-8.2-.2-2.9-.3-5.7-.2-8.5,0-3.6.8-6.9,2.2-9.9,1.3-3,2.9-5.8,4.7-8.6,1.8-2.7,3.6-5.5,5.5-8.3,1.9-2.8,3.4-5.7,4.6-8.8-.7.6-1.6,1.1-2.8,1.4-1.2.3-2.4.5-3.7.5s-2.6-.1-3.8-.4c-1.2-.3-2.3-.7-3.1-1.2-2-1.4-3.5-3.2-4.5-5.3-1-2.1-1.5-4.4-1.5-6.6s.4-3.1,1.3-6c.9-2.9,2-6,3.3-9.2,1.3-3.2,2.6-6.3,3.8-9.3,1.2-3,2.2-5.1,2.8-6.3-.4,1.9-.3,3.8.4,5.8.6,1.9,1.6,3.7,2.8,5.2,1.2,1.5,2.8,2.7,4.6,3.5,1.8.8,3.8,1,5.8.6,1.1-.2,2.1-.6,3-1.3.9-.6,1.8-1.3,2.6-2.1.8-.7,1.7-1.4,2.6-2.1.9-.6,1.9-1.1,3-1.4,1.4.5,2.5,1.2,3.2,2.2.7,1,1.3,2.2,1.6,3.6.7,3.6.4,7.2-.8,10.8-1.2,3.6-3,7.2-5.3,10.8-2.3,3.6-4.8,7.2-7.5,10.8-2.7,3.6-5.3,7.1-7.6,10.5-2.3,3.4-4.2,6.7-5.5,9.9-1.3,3.2-1.6,6.2-1,9,.4,1.7,1.1,3.3,2.1,4.8,1,1.5,2.3,2.7,3.9,3.6.9.5,2.7.8,5.4,1,2.7.1,5.6.2,8.7,0,3.1,0,6.1-.2,9-.4,2.9-.1,5-.3,6.3-.4,1.9-.2,3.6-.9,5-2.2,1.4-1.3,2.7-2.6,3.8-4ZM57.1,74.6l-3.2,3.2-3.2,3.2c-1.1-1.1-2.2-2.2-3.3-3.2-1.1-1-2.2-2.1-3.3-3.2,1.1-1,2.2-2,3.2-3.1,1-1.1,2.1-2.1,3.2-3.1,1.1,1.1,2.2,2.2,3.2,3.2,1,1,2.2,2.1,3.4,3.1Z"/>
    <path class="cls-1" d="M185.8,98.5c-.4,2.4-1.3,4.7-2.6,7.1-1.3,2.3-3,4.4-5,6.3-2,1.9-4.2,3.5-6.6,4.8-2.4,1.3-4.8,2-7.3,2.2-1.7.2-3.5.3-5.3.2-1.8,0-3.6,0-5.3,0s-3.7,0-6,.1c-2.3,0-4.6,0-6.9,0-2.3-.1-4.5-.5-6.5-1-2-.5-3.7-1.5-5-2.9-.6-.6-1.1-1.4-1.6-2.4-.4-1-.8-2-1.1-3.1s-.6-2.2-.9-3.3c-.3-1.1-.6-2.1-.9-3h-.3c-3.5,4.5-7.8,8-13,10.8-5.2,2.7-10.6,4.1-16.3,4.2-2.8,0-5-1-6.6-3-1.7-2-2.3-4.3-1.9-7,.4-2.2.8-4.3,1.1-6.3.3-2,.8-4.1,1.3-6.3.9-3.6,2.6-6.7,5-9.4,2.4-2.7,5.3-5.1,8.4-7.2,3.2-2.1,6.6-3.8,10.2-5.3s7-2.6,10.3-3.6c.6,1.4,1.3,2.8,2,4.2s1.6,2.7,2.6,4c2.3-1.4,4.6-2.7,6.9-3.9,2.3-1.2,4.6-2.5,6.9-3.9h.4c-1.1,2-2.1,4.4-3.1,7.4-1,2.9-1.7,5.9-2,9-.4,3.1-.2,6,.4,8.7s1.9,4.9,4,6.5c1.3,1,2.8,1.7,4.6,2,1.8.3,3.6.5,5.5.6,1.9,0,3.8,0,5.7,0,1.9,0,3.6-.1,5.2-.1s4.4,0,6.5.1c2.1,0,4.2,0,6.2-.3,2-.3,3.9-.9,5.7-1.7,1.8-.8,3.5-2.2,5.2-4.1ZM124.5,82.4c-2.4.7-4.9,1.6-7.4,2.7-2.5,1.1-5,2.4-7.2,4-2.3,1.5-4.3,3.3-6.1,5.4-1.7,2-3,4.4-3.7,6.9h0c0,.1,1.2,1.5,1.2,1.5l1.6.3c2.5-.8,4.7-2,6.6-3.5,1.9-1.5,3.7-3.3,5.4-5.2,1.6-1.9,3.2-4,4.7-6.1,1.5-2.1,3.1-4.1,4.8-5.9Z"/>
    <path class="cls-1" d="M235.7,71.5c-.4,7.3-.7,14.6-.9,22.1-.1,5,0,9.8.2,14.3.2,4.6.2,9.1,0,13.6-.3,4.5-1.1,8.9-2.3,13.2-1.2,4.3-3.4,8.6-6.5,12.9-2.8,3.9-6,7-9.5,9.4-3.5,2.4-7.1,4.1-10.8,5-3.7.9-7.2,1.1-10.6.5-3.4-.6-6.3-2-8.7-4.3-2.4-2.2-4.1-5.3-5.2-9.2-1.1-3.9-1.1-8.7,0-14.3,1.1,2.6,2.4,5.2,3.8,7.8,1.4,2.6,3.4,4.7,5.9,6.4,2.1,1.4,4.4,2.1,6.9,2,2.5,0,4.9-.5,7.3-1.5,2.4-.9,4.6-2.2,6.6-3.8,2-1.6,3.7-3.3,4.9-5.2,1-1.6,1.8-3.2,2.3-4.8.5-1.6,1-3.2,1.3-4.9.3-1.6.5-3.3.5-5.1,0-1.7.1-3.5.2-5.3,0-3.9-.6-7.5-2.2-10.9-2.1,2.4-4.5,4.4-7.3,6.1-2.8,1.7-5.8,2.8-9,3.3-3.3-.8-5.6-2.4-6.9-4.9-1.3-2.5-2.2-5.3-2.5-8.5-.3-3.2-.3-6.4,0-9.7.3-3.3.6-6.1.8-8.5,0-2.7.1-5.4,0-8.1,0-2.7-.3-5.4-.8-8.1v-.4c3.6,4,6.4,8.4,8.4,13.4,2,4.9,3.2,10,3.5,15.3,3.2,0,6-.8,8.3-2.3,2.3-1.5,4.3-3.5,6-5.9,1.6-2.4,2.9-5.1,3.9-8,.9-2.9,1.6-5.8,2-8.4,1.7-.5,3.4-1.1,5.1-1.7,1.7-.6,3.4-1.2,5.2-1.6Z"/>
    <path class="cls-1" d="M286.2,104.8c-.4,1.8-1.1,3.5-2.2,5.1-1,1.6-2.3,3-3.7,4.3-1.4,1.3-3,2.4-4.8,3.2-1.7.8-3.5,1.5-5.2,1.9-1,.2-1.7.4-2.2.6-2,.7-3.9.9-5.8.7-1.8-.2-3.6-.8-5.2-1.8-1.6-.9-3-2.1-4.3-3.6-1.2-1.4-2.3-3.1-3.1-4.9-.5-1.2-.8-2.3-1-3.4-.2-1.1-.4-2.3-.4-3.7-.2-6.6-.1-13.1.1-19.6.3-6.5.3-13.1.1-19.6-.2-4.8-.2-9.5,0-14.1.2-4.6.5-9.3,1-14-.3-.2-.6-.4-1-.5-.4-.1-.8-.2-1.2-.2-2.1.8-3.7,2.1-4.7,3.8-1,1.7-1.8,3.7-2.3,5.8-.5,2.1-.8,4.3-1,6.6-.2,2.2-.5,4.3-.9,6-.2.8-.3,1.5-.4,2.2,0,.6-.2,1.4-.5,2.2h-.3c0-.4.1-1.3,0-2.7,0-1.4-.1-2.9-.3-4.5-.1-1.6-.3-3.1-.4-4.6-.1-1.5-.1-2.6-.1-3.3-.1-2.1-.2-4.2-.3-6.4-.1-2.2-.1-4.4,0-6.5,0-2.1.4-4.2,1-6.3.5-2,1.4-4,2.6-5.8,2-2.9,4.5-4.9,7.4-6,2.9-1.1,5.8-1.4,8.5-1,2.7.4,5.1,1.5,7.2,3.3,2,1.7,3.2,4,3.5,6.8.3,3.2.2,6.5-.1,9.9-.4,3.4-.7,6.7-.9,9.9,0,1.1-.2,2.2-.4,3.4-.2,1.1-.3,2.3-.3,3.4l.9.7c3.5-.4,6.7-.8,9.7-1.3,3-.5,6.1-1.4,9.4-2.8,0,2.6-1,5-2.6,7.2-1.6,2.2-3.5,4-5.5,5.5-2,.3-4,.6-6.1.8-2,.2-4.1.5-6.1.8l-.9.9c-.2,4.9-.4,9.8-.7,14.6-.2,4.9-.7,9.8-1.3,14.6-.2,1.4-.2,2.9.1,4.6s.6,3.2.9,4.6c.5,2,1.6,3.1,3.4,3.4,3.7-.8,6.6-1.5,8.7-2.2,2.1-.6,4-1.5,5.5-2.5,1.5-1,3-2.4,4.3-4.2,1.3-1.7,3.1-4.1,5.2-7.1l-3.7,15.8Z"/>
    <path class="cls-1" d="M383.6,98.7c-1.3,3.6-2.9,6.9-4.8,10.1-1.9,3.1-4.4,5.8-7.6,8-2.3,1.6-4.5,2.5-6.5,2.7-2,.2-4.4.3-6.9.3-2.3,0-4.7.2-7.2.4-2.5.2-5,0-7.2-.7-3.9-1.1-7.2-3.1-10.1-6.1-2.8-2.9-4.4-6.5-4.7-10.7h-.3c-1.1,1.9-2.4,3.8-3.9,5.7-1.5,1.9-3.2,3.6-5,5.1-1.8,1.5-3.8,2.7-5.9,3.7-2.1,1-4.3,1.5-6.6,1.6-1.8-.9-3.2-2.1-4.1-3.7-.9-1.6-1.6-3.3-2.1-5.2-.4-1.8-.7-3.8-.8-5.8-.1-2-.2-3.9-.3-5.7-.2-3.6-.2-7.2-.1-10.8,0-3.6,0-7.2-.3-10.9,4.5-3.7,9.1-7.5,13.7-11.5-.5,2.8-.8,5.6-.8,8.4,0,2.8,0,5.6,0,8.4,0,2.8,0,5.6.1,8.4,0,2.8,0,5.6-.4,8.4,3.3-.3,6.1-1.4,8.4-3.2,2.3-1.8,4.2-4.1,5.7-6.7,1.5-2.6,2.7-5.5,3.7-8.5.9-3,1.8-5.9,2.5-8.6,1.6-.7,3.1-1.4,4.6-2.2,1.4-.7,3-1.5,4.6-2.2-.5,3.7-.6,7.3-.3,11,.3,3.6.4,7.3.4,11.1,0,1.8,0,3.6-.1,5.4-.2,1.8-.2,3.6,0,5.5,0,1.2.3,2.4.9,3.6.8.6,1.5.9,2.2,1,.7.1,1.5.1,2.4.1,4.3-.2,8.6-.2,12.9,0,4.3.1,8.6,0,12.9-.5,2-.2,4-.9,6-2.2,2-1.2,3.7-2.5,5.2-3.8ZM342.3,44.9c0,4.8-1.4,8.6-4.2,11.4-2.8,2.8-6,4.8-9.6,5.8-3.6,1-7.1,1.1-10.5.2-3.4-.8-5.7-2.5-6.9-4.9-.4-.8-.5-1.7-.4-2.8,0-1,.3-2.1.6-3.3.3-1.1.7-2.2,1.1-3.2.4-1,.8-1.9,1.1-2.7-.2,2.4.6,4.4,2.3,6.1,1.7,1.7,3.8,2.3,6.2,1.9.5,0,1-.2,1.6-.2.5,0,1.1,0,1.6,0,2.2.2,4.1.1,5.8-.1,1.6-.3,3.4-1.1,5.3-2.4,1.2-.8,2.3-1.7,3.3-2.7s1.9-2,2.7-3.1Z"/>
    <path class="cls-1" d="M482.5,98.8c-.6,2.3-1.6,4.6-2.9,6.9-1.3,2.3-2.9,4.4-4.7,6.3-1.8,1.9-3.8,3.5-6.1,4.9-2.2,1.3-4.6,2.2-6.9,2.5-1.8.2-3.6.3-5.5.3h-5.5c-1.4,0-3,0-4.8.1-1.8,0-3.6.1-5.4.1s-3.5-.1-5.2-.4c-1.7-.2-3.1-.7-4.2-1.4-1.8-1.2-3.3-2.7-4.6-4.5-1.3-1.8-2.3-3.8-3.1-6-.8-2.2-1.3-4.4-1.6-6.6-.2-2.2-.2-4.4,0-6.5h-.4c-.6.6-1.6,1.6-3.1,3.1-1.4,1.4-3.1,3-4.9,4.8-1.8,1.7-3.8,3.5-5.9,5.4-2.1,1.8-4.1,3.5-5.9,5.1-1.8,1.5-3.5,2.8-5,3.8-1.5,1-2.5,1.5-3.1,1.5-.9,0-1.8,0-2.8,0-.7-.5-1.2-1.1-1.6-1.7-.4-.6-.5-1.4-.3-2.3.9-3.5,1.3-7,1.2-10.5-.1-3.5-.2-7.1-.4-10.7-.1-3.6-.2-7.1,0-10.7,0-3.5.7-7,1.9-10.4,2.6-2,5.2-4,7.8-6,2.6-2,5.2-3.9,7.9-5.8-3,5.1-5.1,10.5-6.4,16.2-1.3,5.7-1.7,11.5-1.2,17.4.6-.7,1.6-1.8,3.1-3.4,1.4-1.5,3.1-3.2,4.9-5.1,1.8-1.8,3.7-3.7,5.8-5.6,2-1.9,4-3.5,6-4.8,1.9-1.3,3.7-2.2,5.3-2.6,1.6-.4,2.9-.2,3.9.8.5.5.8.9.9,1.3,0,.4,0,.9,0,1.5-.2,3.4,0,6.6.4,9.8.5,3.1,1,6.3,1.5,9.6.2,1.6.6,2.9,1.1,4,.5,1,1.5,2.1,2.9,3.2,1.4,1.1,3,1.8,4.8,2.2,1.8.3,3.7.6,5.6.7,1.9.1,3.9,0,5.9,0,2-.1,3.8-.2,5.5-.2s4.6,0,6.9,0c2.3,0,4.5,0,6.6-.4,2.1-.3,4.2-.9,6.2-1.8,2-.8,3.9-2.2,5.7-4ZM465.9,75.1c-1.1,1.1-2.2,2.1-3.4,3.1-1.2,1-2.3,2-3.4,3.1-.8-1.2-1.7-2.3-2.8-3.3-1.1-1-2.1-2-3-3.1,1.3-1,2.5-2,3.6-3.1s2.3-2.1,3.6-3c1.1,1,2,2.1,2.8,3.3s1.7,2.2,2.8,3Z"/>
  </g>
  <g>
    <path class="cls-2" d="M251.6,130.4h3.3v17.6h7.9v2.9h-11.2v-20.5Z"/>
    <path class="cls-2" d="M284.3,130.4h3.3v12.7c0,1.7-.3,3.2-1,4.4s-1.6,2.2-2.8,2.8c-1.2.7-2.6,1-4.2,1s-3-.3-4.2-1c-1.2-.7-2.1-1.6-2.8-2.8s-1-2.7-1-4.4v-12.7h3.3v12.5c0,1.1.2,2.1.6,2.9.4.8,1,1.4,1.7,1.8s1.5.6,2.4.6,1.7-.2,2.4-.6c.7-.4,1.3-1,1.7-1.8.4-.8.6-1.8.6-2.9v-12.5Z"/>
    <path class="cls-2" d="M300.5,133.5h.2v17.5h-3.3v-20.5h4.6l9.9,17.4h-.2s0-17.4,0-17.4h3.3v20.5h-4.6l-9.9-17.5Z"/>
    <path class="cls-2" d="M335.5,148.1c1.2,0,2.2-.2,3.1-.5.9-.3,1.5-.7,1.9-1l1.4,2.8c-.5.4-1.3.8-2.4,1.3s-2.6.6-4.2.6-2.9-.3-4.2-.8c-1.3-.5-2.5-1.3-3.4-2.2-1-1-1.8-2.1-2.3-3.4-.5-1.3-.8-2.7-.8-4.2s.3-2.9.8-4.2c.5-1.3,1.3-2.4,2.3-3.4s2.1-1.7,3.4-2.3c1.3-.5,2.7-.8,4.2-.8s3,.2,4.2.6c1.2.4,2,.8,2.4,1.3l-1.4,2.8c-.4-.3-1.1-.6-1.9-1-.9-.3-1.9-.5-3.1-.5s-2.1.2-3.1.6c-.9.4-1.7.9-2.4,1.6-.7.7-1.2,1.5-1.5,2.4-.4.9-.5,1.9-.5,2.9s.2,2,.5,2.9c.4.9.9,1.7,1.5,2.4.7.7,1.4,1.2,2.4,1.6.9.4,1.9.6,3.1.6Z"/>
    <path class="cls-2" d="M363.5,142.1h-9v8.8h-3.3v-20.5h3.3v8.8h9v-8.8h3.2v20.5h-3.2v-8.8Z"/>
    <path class="cls-2" d="M376.9,130.4h7.5c1.1,0,2.2.2,3.1.7.9.5,1.6,1.2,2.2,2.1.5.9.8,2,.8,3.3s-.2,2.3-.7,3.2c-.5.8-1.1,1.5-1.8,1.9-.7.4-1.3.6-1.9.7l5.1,8.8h-3.7l-4.7-8.5h-2.6v8.5h-3.3v-20.5ZM380.2,140.1h3.1c1.1,0,2-.3,2.8-.8.7-.6,1.1-1.4,1.1-2.7s-.4-2.1-1.1-2.7c-.7-.5-1.7-.8-2.8-.8h-3.1v7Z"/>
    <path class="cls-2" d="M399.2,140.7c0-1.5.3-2.9.8-4.2.5-1.3,1.2-2.4,2.2-3.4.9-1,2-1.7,3.3-2.3,1.3-.5,2.6-.8,4.1-.8s2.9.3,4.1.8c1.2.5,2.3,1.3,3.3,2.3s1.7,2.1,2.2,3.4c.5,1.3.8,2.7.8,4.2s-.3,2.9-.8,4.2c-.5,1.3-1.2,2.4-2.1,3.4-.9,1-2,1.7-3.3,2.3-1.3.5-2.6.8-4.1.8s-2.9-.3-4.2-.8c-1.3-.5-2.4-1.3-3.3-2.3-.9-1-1.6-2.1-2.1-3.4-.5-1.3-.8-2.7-.8-4.2ZM402.6,140.7c0,1.4.3,2.7.9,3.8.6,1.1,1.4,2.1,2.4,2.7,1,.7,2.2,1,3.6,1s2.6-.3,3.6-1c1-.7,1.8-1.6,2.4-2.7.6-1.1.9-2.4.9-3.8s-.3-2.7-.9-3.8c-.6-1.1-1.4-2-2.4-2.7s-2.2-1-3.6-1-2.5.3-3.6,1c-1,.7-1.9,1.6-2.4,2.7-.6,1.1-.9,2.4-.9,3.8Z"/>
    <path class="cls-2" d="M428.1,140.7c0-1.5.3-2.9.8-4.2.5-1.3,1.2-2.4,2.2-3.4.9-1,2-1.7,3.3-2.3,1.3-.5,2.6-.8,4.1-.8s2.9.3,4.1.8c1.2.5,2.3,1.3,3.3,2.3s1.7,2.1,2.2,3.4c.5,1.3.8,2.7.8,4.2s-.3,2.9-.8,4.2c-.5,1.3-1.2,2.4-2.1,3.4-.9,1-2,1.7-3.3,2.3-1.3.5-2.6.8-4.1.8s-2.9-.3-4.2-.8c-1.3-.5-2.4-1.3-3.3-2.3-.9-1-1.6-2.1-2.1-3.4-.5-1.3-.8-2.7-.8-4.2ZM431.5,140.7c0,1.4.3,2.7.9,3.8.6,1.1,1.4,2.1,2.4,2.7,1,.7,2.2,1,3.6,1s2.6-.3,3.6-1c1-.7,1.8-1.6,2.4-2.7.6-1.1.9-2.4.9-3.8s-.3-2.7-.9-3.8c-.6-1.1-1.4-2-2.4-2.7s-2.2-1-3.6-1-2.5.3-3.6,1c-1,.7-1.9,1.6-2.4,2.7-.6,1.1-.9,2.4-.9,3.8Z"/>
    <path class="cls-2" d="M477.5,130.4v20.5h-3.3v-14l.2-2.6-.6,3-4.5,12.4h-3.2l-4.5-12.4-.6-3,.2,2.6v14h-3.3v-20.5h4.5l5.1,15.4.2,1.2.2-1.2,5.2-15.4h4.5Z"/>
  </g>
  <g>
    <path class="cls-2" d="M18.2,140.7c0-1.5.3-2.9.8-4.2.5-1.3,1.3-2.4,2.2-3.4s2-1.7,3.3-2.3c1.3-.5,2.6-.8,4.1-.8s2.9.3,4.1.8c1.3.5,2.3,1.3,3.3,2.3s1.7,2.1,2.2,3.4c.5,1.3.8,2.7.8,4.2s-.3,2.9-.8,4.2c-.5,1.3-1.2,2.4-2.1,3.4-.9,1-2,1.7-3.3,2.3-1.3.5-2.6.8-4.1.8s-2.9-.3-4.2-.8c-1.3-.5-2.4-1.3-3.3-2.3-.9-1-1.6-2.1-2.1-3.4-.5-1.3-.8-2.7-.8-4.2ZM21.6,140.7c0,1.4.3,2.7.9,3.8.6,1.1,1.4,2.1,2.4,2.7,1,.7,2.2,1,3.6,1s2.6-.3,3.6-1c1-.7,1.8-1.6,2.4-2.7.6-1.1.9-2.4.9-3.8s-.3-2.7-.9-3.8c-.6-1.1-1.4-2-2.4-2.7-1-.7-2.2-1-3.6-1s-2.5.3-3.6,1-1.9,1.6-2.4,2.7c-.6,1.1-.9,2.4-.9,3.8Z"/>
    <path class="cls-2" d="M51.1,133.5h.2v17.5h-3.3v-20.5h4.6l9.9,17.4h-.2s0-17.4,0-17.4h3.3v20.5h-4.6l-9.9-17.5Z"/>
    <path class="cls-2" d="M79.9,133.4h-5.3v-2.9h14v2.9h-5.3v17.6h-3.3v-17.6Z"/>
    <path class="cls-2" d="M97.6,130.4h6.1c1.1,0,2.2.2,3.2.5,1,.3,1.8.8,2.4,1.5.6.7.9,1.7.9,3s-.2,1.6-.5,2.3c-.3.7-.7,1.2-1.2,1.7-.5.4-1,.7-1.5.8.4,0,.9.2,1.4.4.5.2.9.5,1.4.9.4.4.8.9,1.1,1.5.3.6.4,1.3.4,2.1s-.2,2.1-.7,3c-.5.9-1.2,1.6-2.1,2-.9.5-2.1.7-3.5.7h-7.2v-20.5ZM100.8,139.2h3c.7,0,1.3-.1,1.8-.4.5-.3.8-.7,1-1.2.2-.5.3-1,.3-1.5,0-1.1-.3-1.8-.9-2.2-.6-.4-1.5-.6-2.5-.6h-2.6v6ZM100.8,148.3h3.4c.9,0,1.6-.2,2.1-.5.5-.3.9-.7,1.1-1.2.2-.5.3-1.1.3-1.7,0-1-.3-1.8-.9-2.3-.6-.6-1.5-.8-2.7-.8h-3.2v6.5Z"/>
    <path class="cls-2" d="M120.8,130.4h3.3v20.5h-3.3v-20.5Z"/>
    <path class="cls-2" d="M143.2,144.7c0,1.4-.2,2.6-.7,3.6s-1.1,1.8-2,2.3c-.9.5-2,.8-3.3.8s-1.8-.1-2.5-.4c-.7-.3-1.2-.5-1.6-.9-.4-.3-.6-.6-.7-.7l1.3-2.8c.1.2.3.4.6.6.2.3.6.5,1,.7.4.2.9.3,1.5.3s1.3-.2,1.7-.5.8-.8,1-1.4c.2-.6.3-1.3.3-2.1v-13.8h3.3v14.3Z"/>
    <path class="cls-2" d="M157.1,133.4h-5.3v-2.9h14v2.9h-5.3v17.6h-3.3v-17.6Z"/>
  </g>
</svg>